<svg width="18" height="18" viewBox="0 0 18 18" fill="none" xmlns="http://www.w3.org/2000/svg">
<path fill-rule="evenodd" clip-rule="evenodd" d="M10.325 11.425L16.9 18L18 16.9L11.4 10.35C11.8667 9.76667 12.2167 9.14167 12.45 8.475C12.6833 7.80833 12.8 7.11667 12.8 6.4C12.8 4.63333 12.1792 3.125 10.9375 1.875C9.69583 0.625 8.19167 0 6.425 0C4.64167 0 3.125 0.625 1.875 1.875C0.625 3.125 0 4.63333 0 6.4C0 8.16667 0.625 9.675 1.875 10.925C3.125 12.175 4.65 12.8 6.45 12.8C7.2 12.8 7.90833 12.6792 8.575 12.4375C9.24167 12.1958 9.825 11.8583 10.325 11.425ZM9.875 9.8625C8.925 10.8208 7.775 11.3 6.425 11.3C5.05833 11.3 3.89583 10.8208 2.9375 9.8625C1.97917 8.90417 1.5 7.75 1.5 6.4C1.5 5.05 1.97917 3.89583 2.9375 2.9375C3.89583 1.97917 5.05833 1.5 6.425 1.5C7.775 1.5 8.925 1.97917 9.875 2.9375C10.825 3.89583 11.3 5.05 11.3 6.4C11.3 7.75 10.825 8.90417 9.875 9.8625Z" fill="#686868"/>
</svg>
