<svg width="78" height="78" viewBox="0 0 78 78" fill="none" xmlns="http://www.w3.org/2000/svg">
<g filter="url(#filter0_d_0_176)">
<circle cx="39" cy="37" r="24" fill="white"/>
</g>
<path fill-rule="evenodd" clip-rule="evenodd" d="M45.775 40.1017L47.025 41.3567C47.9583 40.3862 48.6875 39.3278 49.2125 38.1816C49.7375 37.0354 50 35.701 50 34.1783C50 32.6557 49.7375 31.3212 49.2125 30.175C48.6875 29.0288 47.9583 27.9705 47.025 27L45.775 28.255C46.575 29.1083 47.1875 29.9826 47.6125 30.8778C48.0375 31.773 48.25 32.8732 48.25 34.1783C48.25 35.4835 48.0375 36.5837 47.6125 37.4789C47.1875 38.3741 46.575 39.2483 45.775 40.1017ZM42.3 36.5376L43.55 37.7926C43.9833 37.3241 44.3333 36.7761 44.6 36.1486C44.8667 35.5211 45 34.8644 45 34.1783C45 33.4923 44.8667 32.8355 44.6 32.2081C44.3333 31.5806 43.9833 31.0326 43.55 30.5641L42.3 31.819C42.6 32.1537 42.8333 32.5092 43 32.8857C43.1667 33.2622 43.25 33.6931 43.25 34.1783C43.25 34.6636 43.1667 35.0945 43 35.4709C42.8333 35.8474 42.6 36.203 42.3 36.5376ZM36 37.9432C34.9 37.9432 34 37.5918 33.3 36.889C32.6 36.1863 32.25 35.2827 32.25 34.1783C32.25 33.074 32.6 32.1704 33.3 31.4676C34 30.7649 34.9 30.4135 36 30.4135C37.1 30.4135 38 30.7649 38.7 31.4676C39.4 32.1704 39.75 33.074 39.75 34.1783C39.75 35.2827 39.4 36.1863 38.7 36.889C38 37.5918 37.1 37.9432 36 37.9432ZM28 43.6407V46H44V43.6407C44 43.0048 43.8375 42.4652 43.5125 42.0218C43.1875 41.5784 42.775 41.2312 42.275 40.9802C41.425 40.5451 40.425 40.1854 39.275 39.9009C38.125 39.6165 37.0333 39.4742 36 39.4742C34.9667 39.4742 33.8708 39.6165 32.7125 39.9009C31.5542 40.1854 30.55 40.5451 29.7 40.9802C29.2 41.2312 28.7917 41.5784 28.475 42.0218C28.1583 42.4652 28 43.0048 28 43.6407ZM42.5 44.4941V43.6407C42.5 43.373 42.4292 43.1262 42.2875 42.9003C42.1458 42.6744 41.9417 42.4861 41.675 42.3355C40.875 41.8838 39.9667 41.5449 38.95 41.319C37.9333 41.0931 36.95 40.9802 36 40.9802C35.05 40.9802 34.0625 41.1015 33.0375 41.3441C32.0125 41.5867 31.1 41.9172 30.3 42.3355C30.0667 42.4527 29.875 42.6325 29.725 42.8752C29.575 43.1178 29.5 43.373 29.5 43.6407V44.4941H42.5ZM37.6125 35.7972C37.1875 36.2239 36.65 36.4373 36 36.4373C35.35 36.4373 34.8125 36.2239 34.3875 35.7972C33.9625 35.3705 33.75 34.8309 33.75 34.1783C33.75 33.5258 33.9625 32.9861 34.3875 32.5594C34.8125 32.1328 35.35 31.9194 36 31.9194C36.65 31.9194 37.1875 32.1328 37.6125 32.5594C38.0375 32.9861 38.25 33.5258 38.25 34.1783C38.25 34.8309 38.0375 35.3705 37.6125 35.7972Z" fill="black"/>
<defs>
<filter id="filter0_d_0_176" x="0" y="0" width="78" height="78" filterUnits="userSpaceOnUse" color-interpolation-filters="sRGB">
<feFlood flood-opacity="0" result="BackgroundImageFix"/>
<feColorMatrix in="SourceAlpha" type="matrix" values="0 0 0 0 0 0 0 0 0 0 0 0 0 0 0 0 0 0 127 0" result="hardAlpha"/>
<feMorphology radius="3" operator="dilate" in="SourceAlpha" result="effect1_dropShadow_0_176"/>
<feOffset dy="2"/>
<feGaussianBlur stdDeviation="6"/>
<feColorMatrix type="matrix" values="0 0 0 0 0 0 0 0 0 0 0 0 0 0 0 0 0 0 0.05 0"/>
<feBlend mode="normal" in2="BackgroundImageFix" result="effect1_dropShadow_0_176"/>
<feBlend mode="normal" in="SourceGraphic" in2="effect1_dropShadow_0_176" result="shape"/>
</filter>
</defs>
</svg>
